# xmcd CD database file
#
# Track frame offsets:
#	150
#	22238
#	45393
#	68886
#	86250
#	102256
#	119026
#	138070
#	154367
#	170867
#
# Disc length: 2576 seconds
#
# Revision: 0
# Processed by: cddbd v1.5.1PL0 Copyright (c) Steve Scherf et al.
# Submitted via: CDex 1.51
#
DISCID=880a0e0a
DTITLE=Paul Butterfield's Better Days - Better Days
DYEAR=1900
DGENRE=Blues
TTITLE0=New Walkin Blues
TTITLE1=Please Send Me Someone To Love
TTITLE2=Broke My Baby's Heart
TTITLE3=Done A Lot Of Wrong Things
TTITLE4=Baby Please Don't Go
TTITLE5=Buried Alive In The Blues
TTITLE6=Rule The Road
TTITLE7=Nobody's Fault But Mine
TTITLE8=Highway 28
TTITLE9=Louise
EXTD=
EXTT0=
EXTT1=
EXTT2=
EXTT3=
EXTT4=
EXTT5=
EXTT6=
EXTT7=
EXTT8=
EXTT9=
PLAYORDER=
